<?xml version="1.0" encoding="utf-8" standalone="no"?>
<!DOCTYPE svg PUBLIC "-//W3C//DTD SVG 1.1//EN"
  "http://www.w3.org/Graphics/SVG/1.1/DTD/svg11.dtd">
<svg xmlns:xlink="http://www.w3.org/1999/xlink" width="460.8pt" height="345.6pt" viewBox="0 0 460.8 345.6" xmlns="http://www.w3.org/2000/svg" version="1.1">
 <metadata>
  <rdf:RDF xmlns:dc="http://purl.org/dc/elements/1.1/" xmlns:cc="http://creativecommons.org/ns#" xmlns:rdf="http://www.w3.org/1999/02/22-rdf-syntax-ns#">
   <cc:Work>
    <dc:type rdf:resource="http://purl.org/dc/dcmitype/StillImage"/>
    <dc:date>2023-02-20T20:48:46.105453</dc:date>
    <dc:format>image/svg+xml</dc:format>
    <dc:creator>
     <cc:Agent>
      <dc:title>Matplotlib v3.6.2, https://matplotlib.org/</dc:title>
     </cc:Agent>
    </dc:creator>
   </cc:Work>
  </rdf:RDF>
 </metadata>
 <defs>
  <style type="text/css">*{stroke-linejoin: round; stroke-linecap: butt}</style>
 </defs>
 <g id="figure_1">
  <g id="patch_1">
   <path d="M 0 345.6 
L 460.8 345.6 
L 460.8 0 
L 0 0 
z
" style="fill: #ffffff"/>
  </g>
  <g id="axes_1">
   <g id="patch_2">
    <path d="M 58.722537 153.810744 
L 48.912397 43.48423 
L 125.922001 117.74246 
z
" clip-path="url(#pdab95c0ae7)" style="fill: #084a91; opacity: 0.4"/>
   </g>
   <g id="patch_3">
    <path d="M 58.722537 153.810744 
L 116.111861 58.335876 
L 125.922001 117.74246 
z
" clip-path="url(#pdab95c0ae7)" style="fill: #084a91; opacity: 0.4"/>
   </g>
   <g id="patch_4">
    <path d="M 116.111861 58.335876 
L 321.143802 24.389256 
L 303.976055 79.552513 
z
" clip-path="url(#pdab95c0ae7)" style="fill: #084a91; opacity: 0.4"/>
   </g>
   <g id="patch_5">
    <path d="M 330.953942 136.837434 
L 303.976055 79.552513 
L 411.887603 98.647487 
z
" clip-path="url(#pdab95c0ae7)" style="fill: #084a91; opacity: 0.4"/>
   </g>
   <g id="patch_6">
    <path d="M 330.953942 136.837434 
L 321.143802 24.389256 
L 411.887603 98.647487 
z
" clip-path="url(#pdab95c0ae7)" style="fill: #084a91; opacity: 0.4"/>
   </g>
   <g id="PathCollection_1">
    <path d="M 48.912397 53.48423 
C 51.564428 53.48423 54.108195 52.430567 55.983465 50.555298 
C 57.858734 48.680028 58.912397 46.136261 58.912397 43.48423 
C 58.912397 40.832199 57.858734 38.288431 55.983465 36.413162 
C 54.108195 34.537893 51.564428 33.48423 48.912397 33.48423 
C 46.260366 33.48423 43.716598 34.537893 41.841329 36.413162 
C 39.96606 38.288431 38.912397 40.832199 38.912397 43.48423 
C 38.912397 46.136261 39.96606 48.680028 41.841329 50.555298 
C 43.716598 52.430567 46.260366 53.48423 48.912397 53.48423 
z
" clip-path="url(#pdab95c0ae7)" style="fill: #ffffff; stroke: #000000; stroke-width: 1.5"/>
    <path d="M 58.722537 163.810744 
C 61.374568 163.810744 63.918336 162.757081 65.793605 160.881812 
C 67.668874 159.006543 68.722537 156.462775 68.722537 153.810744 
C 68.722537 151.158713 67.668874 148.614945 65.793605 146.739676 
C 63.918336 144.864407 61.374568 143.810744 58.722537 143.810744 
C 56.070506 143.810744 53.526739 144.864407 51.65147 146.739676 
C 49.7762 148.614945 48.722537 151.158713 48.722537 153.810744 
C 48.722537 156.462775 49.7762 159.006543 51.65147 160.881812 
C 53.526739 162.757081 56.070506 163.810744 58.722537 163.810744 
z
" clip-path="url(#pdab95c0ae7)" style="stroke: #000000; stroke-width: 1.5"/>
    <path d="M 125.922001 127.74246 
C 128.574032 127.74246 131.1178 126.688797 132.993069 124.813528 
C 134.868338 122.938259 135.922001 120.394491 135.922001 117.74246 
C 135.922001 115.090429 134.868338 112.546662 132.993069 110.671393 
C 131.1178 108.796123 128.574032 107.74246 125.922001 107.74246 
C 123.26997 107.74246 120.726203 108.796123 118.850934 110.671393 
C 116.975664 112.546662 115.922001 115.090429 115.922001 117.74246 
C 115.922001 120.394491 116.975664 122.938259 118.850934 124.813528 
C 120.726203 126.688797 123.26997 127.74246 125.922001 127.74246 
z
" clip-path="url(#pdab95c0ae7)" style="fill: #ffffff; stroke: #000000; stroke-width: 1.5"/>
    <path d="M 116.111861 68.335876 
C 118.763892 68.335876 121.307659 67.282213 123.182928 65.406944 
C 125.058198 63.531675 126.111861 60.987907 126.111861 58.335876 
C 126.111861 55.683845 125.058198 53.140077 123.182928 51.264808 
C 121.307659 49.389539 118.763892 48.335876 116.111861 48.335876 
C 113.45983 48.335876 110.916062 49.389539 109.040793 51.264808 
C 107.165524 53.140077 106.111861 55.683845 106.111861 58.335876 
C 106.111861 60.987907 107.165524 63.531675 109.040793 65.406944 
C 110.916062 67.282213 113.45983 68.335876 116.111861 68.335876 
z
" clip-path="url(#pdab95c0ae7)" style="stroke: #000000; stroke-width: 1.5"/>
    <path d="M 321.143802 34.389256 
C 323.795833 34.389256 326.3396 33.335593 328.214869 31.460324 
C 330.090139 29.585055 331.143802 27.041287 331.143802 24.389256 
C 331.143802 21.737225 330.090139 19.193457 328.214869 17.318188 
C 326.3396 15.442919 323.795833 14.389256 321.143802 14.389256 
C 318.491771 14.389256 315.948003 15.442919 314.072734 17.318188 
C 312.197465 19.193457 311.143802 21.737225 311.143802 24.389256 
C 311.143802 27.041287 312.197465 29.585055 314.072734 31.460324 
C 315.948003 33.335593 318.491771 34.389256 321.143802 34.389256 
z
" clip-path="url(#pdab95c0ae7)" style="stroke: #000000; stroke-width: 1.5"/>
    <path d="M 303.976055 89.552513 
C 306.628086 89.552513 309.171854 88.49885 311.047123 86.623581 
C 312.922392 84.748312 313.976055 82.204544 313.976055 79.552513 
C 313.976055 76.900482 312.922392 74.356715 311.047123 72.481445 
C 309.171854 70.606176 306.628086 69.552513 303.976055 69.552513 
C 301.324024 69.552513 298.780257 70.606176 296.904988 72.481445 
C 295.029718 74.356715 293.976055 76.900482 293.976055 79.552513 
C 293.976055 82.204544 295.029718 84.748312 296.904988 86.623581 
C 298.780257 88.49885 301.324024 89.552513 303.976055 89.552513 
z
" clip-path="url(#pdab95c0ae7)" style="fill: #ffffff; stroke: #000000; stroke-width: 1.5"/>
    <path d="M 330.953942 146.837434 
C 333.605973 146.837434 336.149741 145.783771 338.02501 143.908502 
C 339.900279 142.033233 340.953942 139.489465 340.953942 136.837434 
C 340.953942 134.185403 339.900279 131.641635 338.02501 129.766366 
C 336.149741 127.891097 333.605973 126.837434 330.953942 126.837434 
C 328.301911 126.837434 325.758144 127.891097 323.882875 129.766366 
C 322.007605 131.641635 320.953942 134.185403 320.953942 136.837434 
C 320.953942 139.489465 322.007605 142.033233 323.882875 143.908502 
C 325.758144 145.783771 328.301911 146.837434 330.953942 146.837434 
z
" clip-path="url(#pdab95c0ae7)" style="stroke: #000000; stroke-width: 1.5"/>
    <path d="M 411.887603 108.647487 
C 414.539634 108.647487 417.083402 107.593824 418.958671 105.718555 
C 420.83394 103.843285 421.887603 101.299518 421.887603 98.647487 
C 421.887603 95.995456 420.83394 93.451688 418.958671 91.576419 
C 417.083402 89.70115 414.539634 88.647487 411.887603 88.647487 
C 409.235572 88.647487 406.691805 89.70115 404.816535 91.576419 
C 402.941266 93.451688 401.887603 95.995456 401.887603 98.647487 
C 401.887603 101.299518 402.941266 103.843285 404.816535 105.718555 
C 406.691805 107.593824 409.235572 108.647487 411.887603 108.647487 
z
" clip-path="url(#pdab95c0ae7)" style="fill: #ffffff; stroke: #000000; stroke-width: 1.5"/>
   </g>
  </g>
  <g id="axes_2">
   <g id="patch_7">
    <path d="M 58.722537 321.210744 
L 48.912397 210.88423 
L 125.922001 285.14246 
z
" clip-path="url(#p55997d2450)" style="fill: #084a91; opacity: 0.4"/>
   </g>
   <g id="patch_8">
    <path d="M 58.722537 321.210744 
L 116.111861 225.735876 
L 125.922001 285.14246 
z
" clip-path="url(#p55997d2450)" style="fill: #084a91; opacity: 0.4"/>
   </g>
   <g id="patch_9">
    <path d="M 116.111861 225.735876 
L 321.143802 191.789256 
L 303.976055 246.952513 
z
" clip-path="url(#p55997d2450)" style="fill: #084a91; opacity: 0.4"/>
   </g>
   <g id="patch_10">
    <path d="M 330.953942 304.237434 
L 303.976055 246.952513 
L 411.887603 266.047487 
z
" clip-path="url(#p55997d2450)" style="fill: #084a91; opacity: 0.4"/>
   </g>
   <g id="patch_11">
    <path d="M 330.953942 304.237434 
L 321.143802 191.789256 
L 411.887603 266.047487 
z
" clip-path="url(#p55997d2450)" style="fill: #084a91; opacity: 0.4"/>
   </g>
   <g id="PathCollection_2">
    <path d="M 48.912397 220.88423 
C 51.564428 220.88423 54.108195 219.830567 55.983465 217.955298 
C 57.858734 216.080028 58.912397 213.536261 58.912397 210.88423 
C 58.912397 208.232199 57.858734 205.688431 55.983465 203.813162 
C 54.108195 201.937893 51.564428 200.88423 48.912397 200.88423 
C 46.260366 200.88423 43.716598 201.937893 41.841329 203.813162 
C 39.96606 205.688431 38.912397 208.232199 38.912397 210.88423 
C 38.912397 213.536261 39.96606 216.080028 41.841329 217.955298 
C 43.716598 219.830567 46.260366 220.88423 48.912397 220.88423 
z
" clip-path="url(#p55997d2450)" style="stroke: #000000; stroke-width: 1.5"/>
    <path d="M 58.722537 331.210744 
C 61.374568 331.210744 63.918336 330.157081 65.793605 328.281812 
C 67.668874 326.406543 68.722537 323.862775 68.722537 321.210744 
C 68.722537 318.558713 67.668874 316.014945 65.793605 314.139676 
C 63.918336 312.264407 61.374568 311.210744 58.722537 311.210744 
C 56.070506 311.210744 53.526739 312.264407 51.65147 314.139676 
C 49.7762 316.014945 48.722537 318.558713 48.722537 321.210744 
C 48.722537 323.862775 49.7762 326.406543 51.65147 328.281812 
C 53.526739 330.157081 56.070506 331.210744 58.722537 331.210744 
z
" clip-path="url(#p55997d2450)" style="stroke: #000000; stroke-width: 1.5"/>
    <path d="M 125.922001 295.14246 
C 128.574032 295.14246 131.1178 294.088797 132.993069 292.213528 
C 134.868338 290.338259 135.922001 287.794491 135.922001 285.14246 
C 135.922001 282.490429 134.868338 279.946662 132.993069 278.071393 
C 131.1178 276.196123 128.574032 275.14246 125.922001 275.14246 
C 123.26997 275.14246 120.726203 276.196123 118.850934 278.071393 
C 116.975664 279.946662 115.922001 282.490429 115.922001 285.14246 
C 115.922001 287.794491 116.975664 290.338259 118.850934 292.213528 
C 120.726203 294.088797 123.26997 295.14246 125.922001 295.14246 
z
" clip-path="url(#p55997d2450)" style="stroke: #000000; stroke-width: 1.5"/>
    <path d="M 116.111861 235.735876 
C 118.763892 235.735876 121.307659 234.682213 123.182928 232.806944 
C 125.058198 230.931675 126.111861 228.387907 126.111861 225.735876 
C 126.111861 223.083845 125.058198 220.540077 123.182928 218.664808 
C 121.307659 216.789539 118.763892 215.735876 116.111861 215.735876 
C 113.45983 215.735876 110.916062 216.789539 109.040793 218.664808 
C 107.165524 220.540077 106.111861 223.083845 106.111861 225.735876 
C 106.111861 228.387907 107.165524 230.931675 109.040793 232.806944 
C 110.916062 234.682213 113.45983 235.735876 116.111861 235.735876 
z
" clip-path="url(#p55997d2450)" style="stroke: #000000; stroke-width: 1.5"/>
    <path d="M 321.143802 201.789256 
C 323.795833 201.789256 326.3396 200.735593 328.214869 198.860324 
C 330.090139 196.985055 331.143802 194.441287 331.143802 191.789256 
C 331.143802 189.137225 330.090139 186.593457 328.214869 184.718188 
C 326.3396 182.842919 323.795833 181.789256 321.143802 181.789256 
C 318.491771 181.789256 315.948003 182.842919 314.072734 184.718188 
C 312.197465 186.593457 311.143802 189.137225 311.143802 191.789256 
C 311.143802 194.441287 312.197465 196.985055 314.072734 198.860324 
C 315.948003 200.735593 318.491771 201.789256 321.143802 201.789256 
z
" clip-path="url(#p55997d2450)" style="fill: #ffffff; stroke: #000000; stroke-width: 1.5"/>
    <path d="M 303.976055 256.952513 
C 306.628086 256.952513 309.171854 255.89885 311.047123 254.023581 
C 312.922392 252.148312 313.976055 249.604544 313.976055 246.952513 
C 313.976055 244.300482 312.922392 241.756715 311.047123 239.881445 
C 309.171854 238.006176 306.628086 236.952513 303.976055 236.952513 
C 301.324024 236.952513 298.780257 238.006176 296.904988 239.881445 
C 295.029718 241.756715 293.976055 244.300482 293.976055 246.952513 
C 293.976055 249.604544 295.029718 252.148312 296.904988 254.023581 
C 298.780257 255.89885 301.324024 256.952513 303.976055 256.952513 
z
" clip-path="url(#p55997d2450)" style="fill: #ffffff; stroke: #000000; stroke-width: 1.5"/>
    <path d="M 330.953942 314.237434 
C 333.605973 314.237434 336.149741 313.183771 338.02501 311.308502 
C 339.900279 309.433233 340.953942 306.889465 340.953942 304.237434 
C 340.953942 301.585403 339.900279 299.041635 338.02501 297.166366 
C 336.149741 295.291097 333.605973 294.237434 330.953942 294.237434 
C 328.301911 294.237434 325.758144 295.291097 323.882875 297.166366 
C 322.007605 299.041635 320.953942 301.585403 320.953942 304.237434 
C 320.953942 306.889465 322.007605 309.433233 323.882875 311.308502 
C 325.758144 313.183771 328.301911 314.237434 330.953942 314.237434 
z
" clip-path="url(#p55997d2450)" style="fill: #ffffff; stroke: #000000; stroke-width: 1.5"/>
    <path d="M 411.887603 276.047487 
C 414.539634 276.047487 417.083402 274.993824 418.958671 273.118555 
C 420.83394 271.243285 421.887603 268.699518 421.887603 266.047487 
C 421.887603 263.395456 420.83394 260.851688 418.958671 258.976419 
C 417.083402 257.10115 414.539634 256.047487 411.887603 256.047487 
C 409.235572 256.047487 406.691805 257.10115 404.816535 258.976419 
C 402.941266 260.851688 401.887603 263.395456 401.887603 266.047487 
C 401.887603 268.699518 402.941266 271.243285 404.816535 273.118555 
C 406.691805 274.993824 409.235572 276.047487 411.887603 276.047487 
z
" clip-path="url(#p55997d2450)" style="fill: #ffffff; stroke: #000000; stroke-width: 1.5"/>
   </g>
  </g>
 </g>
 <defs>
  <clipPath id="pdab95c0ae7">
   <rect x="10.8" y="10.8" width="439.2" height="156.6"/>
  </clipPath>
  <clipPath id="p55997d2450">
   <rect x="10.8" y="178.2" width="439.2" height="156.6"/>
  </clipPath>
 </defs>
</svg>
