<?xml version="1.0" encoding="UTF-8" standalone="no"?>
<svg
   width="550pt"
   height="380pt"
   viewBox="0 0 550.00001 379.99999"
   version="1.1"
   id="svg216"
   sodipodi:docname="psi_illustration.svg"
   inkscape:version="1.2.1 (9c6d41e, 2022-07-14)"
   inkscape:export-filename="psi_illustration.pdf"
   inkscape:export-xdpi="1000"
   inkscape:export-ydpi="1000"
   xmlns:inkscape="http://www.inkscape.org/namespaces/inkscape"
   xmlns:sodipodi="http://sodipodi.sourceforge.net/DTD/sodipodi-0.dtd"
   xmlns="http://www.w3.org/2000/svg"
   xmlns:svg="http://www.w3.org/2000/svg"
   xmlns:rdf="http://www.w3.org/1999/02/22-rdf-syntax-ns#"
   xmlns:cc="http://creativecommons.org/ns#"
   xmlns:dc="http://purl.org/dc/elements/1.1/">
  <sodipodi:namedview
     id="namedview218"
     pagecolor="#ffffff"
     bordercolor="#000000"
     borderopacity="0.25"
     inkscape:showpageshadow="2"
     inkscape:pageopacity="0.0"
     inkscape:pagecheckerboard="0"
     inkscape:deskcolor="#d1d1d1"
     inkscape:document-units="pt"
     showgrid="false"
     inkscape:zoom="1"
     inkscape:cx="420.5"
     inkscape:cy="317.5"
     inkscape:window-width="1512"
     inkscape:window-height="831"
     inkscape:window-x="0"
     inkscape:window-y="38"
     inkscape:window-maximized="0"
     inkscape:current-layer="svg216"
     showguides="false" />
  <metadata
     id="metadata132">
    <rdf:RDF>
      <cc:Work>
        <dc:type
           rdf:resource="http://purl.org/dc/dcmitype/StillImage" />
        <dc:date>2023-02-20T20:24:29.554140</dc:date>
        <dc:format>image/svg+xml</dc:format>
        <dc:creator>
          <cc:Agent>
            <dc:title>Matplotlib v3.6.2, https://matplotlib.org/</dc:title>
          </cc:Agent>
        </dc:creator>
      </cc:Work>
    </rdf:RDF>
  </metadata>
  <defs
     id="defs136">
    <rect
       x="610"
       y="-244.28571"
       width="435.71429"
       height="132.85715"
       id="rect3099" />
    <style
       type="text/css"
       id="style134">*{stroke-linejoin: round; stroke-linecap: butt}</style>
  </defs>
  <g
     id="figure_1"
     transform="translate(0,30)">
    <g
       id="patch_1">
      <path
         d="M 0,345.6 H 460.8 V 0 H 0 Z"
         style="fill:#ffffff"
         id="path138" />
    </g>
    <g
       id="axes_1">
      <g
         id="patch_2">
        <path
           d="M 58.722537,153.81074 48.912397,43.48423 125.922,117.74246 Z"
           clip-path="url(#p5ed0ad9281)"
           style="opacity:0.4;fill:#084a91"
           id="path141" />
      </g>
      <g
         id="patch_3">
        <path
           d="M 58.722537,153.81074 116.11186,58.335876 125.922,117.74246 Z"
           clip-path="url(#p5ed0ad9281)"
           style="opacity:0.4;fill:#084a91"
           id="path144" />
      </g>
      <g
         id="patch_4">
        <path
           d="M 116.11186,58.335876 321.1438,24.389256 303.97605,79.552513 Z"
           clip-path="url(#p5ed0ad9281)"
           style="opacity:0.4;fill:#084a91"
           id="path147" />
      </g>
      <g
         id="patch_5">
        <path
           d="M 330.95394,136.83743 303.97605,79.552513 411.8876,98.647487 Z"
           clip-path="url(#p5ed0ad9281)"
           style="opacity:0.4;fill:#084a91"
           id="path150" />
      </g>
      <g
         id="patch_6">
        <path
           d="M 330.95394,136.83743 321.1438,24.389256 411.8876,98.647487 Z"
           clip-path="url(#p5ed0ad9281)"
           style="opacity:0.4;fill:#084a91"
           id="path153" />
      </g>
      <g
         id="PathCollection_1">
        <path
           d="m 48.912397,53.48423 c 2.652031,0 5.195798,-1.053663 7.071068,-2.928932 1.875269,-1.87527 2.928932,-4.419037 2.928932,-7.071068 0,-2.652031 -1.053663,-5.195799 -2.928932,-7.071068 -1.87527,-1.875269 -4.419037,-2.928932 -7.071068,-2.928932 -2.652031,0 -5.195799,1.053663 -7.071068,2.928932 -1.875269,1.875269 -2.928932,4.419037 -2.928932,7.071068 0,2.652031 1.053663,5.195798 2.928932,7.071068 1.875269,1.875269 4.419037,2.928932 7.071068,2.928932 z"
           clip-path="url(#p5ed0ad9281)"
           style="fill:#ffffff;stroke:#000000;stroke-width:1.5"
           id="path156" />
        <path
           d="m 58.722537,163.81074 c 2.652031,0 5.195799,-1.05366 7.071068,-2.92893 1.875269,-1.87527 2.928932,-4.41904 2.928932,-7.07107 0,-2.65203 -1.053663,-5.1958 -2.928932,-7.07106 -1.875269,-1.87527 -4.419037,-2.92894 -7.071068,-2.92894 -2.652031,0 -5.195798,1.05367 -7.071067,2.92894 -1.87527,1.87526 -2.928933,4.41903 -2.928933,7.07106 0,2.65203 1.053663,5.1958 2.928933,7.07107 1.875269,1.87527 4.419036,2.92893 7.071067,2.92893 z"
           clip-path="url(#p5ed0ad9281)"
           style="stroke:#000000;stroke-width:1.5"
           id="path158" />
        <path
           d="m 125.922,127.74246 c 2.65203,0 5.1958,-1.05366 7.07107,-2.92893 1.87527,-1.87527 2.92893,-4.41904 2.92893,-7.07107 0,-2.65203 -1.05366,-5.1958 -2.92893,-7.07107 -1.87527,-1.87527 -4.41904,-2.92893 -7.07107,-2.92893 -2.65203,0 -5.1958,1.05366 -7.07107,2.92893 -1.87527,1.87527 -2.92893,4.41904 -2.92893,7.07107 0,2.65203 1.05366,5.1958 2.92893,7.07107 1.87527,1.87527 4.41904,2.92893 7.07107,2.92893 z"
           clip-path="url(#p5ed0ad9281)"
           style="fill:#ffffff;stroke:#000000;stroke-width:1.5"
           id="path160" />
        <path
           d="m 116.11186,68.335876 c 2.65203,0 5.1958,-1.053663 7.07107,-2.928932 1.87527,-1.875269 2.92893,-4.419037 2.92893,-7.071068 0,-2.652031 -1.05366,-5.195799 -2.92893,-7.071068 -1.87527,-1.875269 -4.41904,-2.928932 -7.07107,-2.928932 -2.65203,0 -5.1958,1.053663 -7.07107,2.928932 -1.87527,1.875269 -2.92893,4.419037 -2.92893,7.071068 0,2.652031 1.05366,5.195799 2.92893,7.071068 1.87527,1.875269 4.41904,2.928932 7.07107,2.928932 z"
           clip-path="url(#p5ed0ad9281)"
           style="stroke:#000000;stroke-width:1.5"
           id="path162" />
        <path
           d="m 321.1438,34.389256 c 2.65203,0 5.1958,-1.053663 7.07107,-2.928932 1.87527,-1.875269 2.92893,-4.419037 2.92893,-7.071068 0,-2.652031 -1.05366,-5.195799 -2.92893,-7.071068 -1.87527,-1.875269 -4.41904,-2.928932 -7.07107,-2.928932 -2.65203,0 -5.1958,1.053663 -7.07107,2.928932 -1.87526,1.875269 -2.92893,4.419037 -2.92893,7.071068 0,2.652031 1.05367,5.195799 2.92893,7.071068 1.87527,1.875269 4.41904,2.928932 7.07107,2.928932 z"
           clip-path="url(#p5ed0ad9281)"
           style="stroke:#000000;stroke-width:1.5"
           id="path164" />
        <path
           d="m 303.97605,89.552513 c 2.65204,0 5.1958,-1.053663 7.07107,-2.928932 1.87527,-1.875269 2.92893,-4.419037 2.92893,-7.071068 0,-2.652031 -1.05366,-5.195798 -2.92893,-7.071068 -1.87527,-1.875269 -4.41903,-2.928932 -7.07107,-2.928932 -2.65203,0 -5.19579,1.053663 -7.07106,2.928932 -1.87527,1.87527 -2.92894,4.419037 -2.92894,7.071068 0,2.652031 1.05367,5.195799 2.92894,7.071068 1.87527,1.875269 4.41903,2.928932 7.07106,2.928932 z"
           clip-path="url(#p5ed0ad9281)"
           style="fill:#ffffff;stroke:#000000;stroke-width:1.5"
           id="path166" />
        <path
           d="m 330.95394,146.83743 c 2.65203,0 5.1958,-1.05366 7.07107,-2.92893 1.87527,-1.87527 2.92893,-4.41904 2.92893,-7.07107 0,-2.65203 -1.05366,-5.1958 -2.92893,-7.07106 -1.87527,-1.87527 -4.41904,-2.92894 -7.07107,-2.92894 -2.65203,0 -5.1958,1.05367 -7.07106,2.92894 -1.87528,1.87526 -2.92894,4.41903 -2.92894,7.07106 0,2.65203 1.05366,5.1958 2.92894,7.07107 1.87526,1.87527 4.41903,2.92893 7.07106,2.92893 z"
           clip-path="url(#p5ed0ad9281)"
           style="stroke:#000000;stroke-width:1.5"
           id="path168" />
        <path
           d="m 411.8876,108.64749 c 2.65203,0 5.1958,-1.05367 7.07107,-2.92894 1.87527,-1.87527 2.92893,-4.41903 2.92893,-7.071063 0,-2.652031 -1.05366,-5.195799 -2.92893,-7.071068 -1.87527,-1.875269 -4.41904,-2.928932 -7.07107,-2.928932 -2.65203,0 -5.1958,1.053663 -7.07107,2.928932 -1.87526,1.875269 -2.92893,4.419037 -2.92893,7.071068 0,2.652033 1.05367,5.195793 2.92893,7.071063 1.87527,1.87527 4.41904,2.92894 7.07107,2.92894 z"
           clip-path="url(#p5ed0ad9281)"
           style="fill:#ffffff;stroke:#000000;stroke-width:1.5"
           id="path170" />
      </g>
    </g>
    <g
       id="axes_2">
      <g
         id="patch_7">
        <path
           d="M 58.722537,321.21074 48.912397,210.88423 125.922,285.14246 Z"
           clip-path="url(#p849d52a19e)"
           style="opacity:0.4;fill:#084a91"
           id="path174" />
      </g>
      <g
         id="patch_8">
        <path
           d="m 58.722537,321.21074 57.389323,-95.47486 9.81014,59.40658 z"
           clip-path="url(#p849d52a19e)"
           style="opacity:0.4;fill:#084a91"
           id="path177" />
      </g>
      <g
         id="patch_9">
        <path
           d="M 116.11186,225.73588 321.1438,191.78926 303.97605,246.95251 Z"
           clip-path="url(#p849d52a19e)"
           style="opacity:0.4;fill:#084a91"
           id="path180" />
      </g>
      <g
         id="patch_10">
        <path
           d="M 330.95394,304.23743 303.97605,246.95251 411.8876,266.04749 Z"
           clip-path="url(#p849d52a19e)"
           style="opacity:0.4;fill:#084a91"
           id="path183" />
      </g>
      <g
         id="patch_11">
        <path
           d="m 330.95394,304.23743 -9.81014,-112.44817 90.7438,74.25823 z"
           clip-path="url(#p849d52a19e)"
           style="opacity:0.4;fill:#084a91"
           id="path186" />
      </g>
      <g
         id="PathCollection_2">
        <path
           d="m 48.912397,220.88423 c 2.652031,0 5.195798,-1.05366 7.071068,-2.92893 1.875269,-1.87527 2.928932,-4.41904 2.928932,-7.07107 0,-2.65203 -1.053663,-5.1958 -2.928932,-7.07107 -1.87527,-1.87527 -4.419037,-2.92893 -7.071068,-2.92893 -2.652031,0 -5.195799,1.05366 -7.071068,2.92893 -1.875269,1.87527 -2.928932,4.41904 -2.928932,7.07107 0,2.65203 1.053663,5.1958 2.928932,7.07107 1.875269,1.87527 4.419037,2.92893 7.071068,2.92893 z"
           clip-path="url(#p849d52a19e)"
           style="stroke:#000000;stroke-width:1.5"
           id="path189" />
        <path
           d="m 58.722537,331.21074 c 2.652031,0 5.195799,-1.05366 7.071068,-2.92893 1.875269,-1.87527 2.928932,-4.41904 2.928932,-7.07107 0,-2.65203 -1.053663,-5.1958 -2.928932,-7.07106 -1.875269,-1.87527 -4.419037,-2.92894 -7.071068,-2.92894 -2.652031,0 -5.195798,1.05367 -7.071067,2.92894 -1.87527,1.87526 -2.928933,4.41903 -2.928933,7.07106 0,2.65203 1.053663,5.1958 2.928933,7.07107 1.875269,1.87527 4.419036,2.92893 7.071067,2.92893 z"
           clip-path="url(#p849d52a19e)"
           style="stroke:#000000;stroke-width:1.5"
           id="path191" />
        <path
           d="m 125.922,295.14246 c 2.65203,0 5.1958,-1.05366 7.07107,-2.92893 1.87527,-1.87527 2.92893,-4.41904 2.92893,-7.07107 0,-2.65203 -1.05366,-5.1958 -2.92893,-7.07107 -1.87527,-1.87527 -4.41904,-2.92893 -7.07107,-2.92893 -2.65203,0 -5.1958,1.05366 -7.07107,2.92893 -1.87527,1.87527 -2.92893,4.41904 -2.92893,7.07107 0,2.65203 1.05366,5.1958 2.92893,7.07107 1.87527,1.87527 4.41904,2.92893 7.07107,2.92893 z"
           clip-path="url(#p849d52a19e)"
           style="stroke:#000000;stroke-width:1.5"
           id="path193" />
        <path
           d="m 116.11186,235.73588 c 2.65203,0 5.1958,-1.05367 7.07107,-2.92894 1.87527,-1.87526 2.92893,-4.41903 2.92893,-7.07106 0,-2.65204 -1.05366,-5.1958 -2.92893,-7.07107 -1.87527,-1.87527 -4.41904,-2.92893 -7.07107,-2.92893 -2.65203,0 -5.1958,1.05366 -7.07107,2.92893 -1.87527,1.87527 -2.92893,4.41903 -2.92893,7.07107 0,2.65203 1.05366,5.1958 2.92893,7.07106 1.87527,1.87527 4.41904,2.92894 7.07107,2.92894 z"
           clip-path="url(#p849d52a19e)"
           style="stroke:#000000;stroke-width:1.5"
           id="path195" />
        <path
           d="m 321.1438,201.78926 c 2.65203,0 5.1958,-1.05367 7.07107,-2.92894 1.87527,-1.87527 2.92893,-4.41903 2.92893,-7.07106 0,-2.65204 -1.05366,-5.1958 -2.92893,-7.07107 -1.87527,-1.87527 -4.41904,-2.92893 -7.07107,-2.92893 -2.65203,0 -5.1958,1.05366 -7.07107,2.92893 -1.87526,1.87527 -2.92893,4.41903 -2.92893,7.07107 0,2.65203 1.05367,5.19579 2.92893,7.07106 1.87527,1.87527 4.41904,2.92894 7.07107,2.92894 z"
           clip-path="url(#p849d52a19e)"
           style="fill:#ffffff;stroke:#000000;stroke-width:1.5"
           id="path197" />
        <path
           d="m 303.97605,256.95251 c 2.65204,0 5.1958,-1.05366 7.07107,-2.92893 1.87527,-1.87527 2.92893,-4.41904 2.92893,-7.07107 0,-2.65203 -1.05366,-5.19579 -2.92893,-7.07106 -1.87527,-1.87527 -4.41903,-2.92894 -7.07107,-2.92894 -2.65203,0 -5.19579,1.05367 -7.07106,2.92894 -1.87527,1.87527 -2.92894,4.41903 -2.92894,7.07106 0,2.65203 1.05367,5.1958 2.92894,7.07107 1.87527,1.87527 4.41903,2.92893 7.07106,2.92893 z"
           clip-path="url(#p849d52a19e)"
           style="fill:#ffffff;stroke:#000000;stroke-width:1.5"
           id="path199" />
        <path
           d="m 330.95394,314.23743 c 2.65203,0 5.1958,-1.05366 7.07107,-2.92893 1.87527,-1.87527 2.92893,-4.41904 2.92893,-7.07107 0,-2.65203 -1.05366,-5.1958 -2.92893,-7.07106 -1.87527,-1.87527 -4.41904,-2.92894 -7.07107,-2.92894 -2.65203,0 -5.1958,1.05367 -7.07106,2.92894 -1.87528,1.87526 -2.92894,4.41903 -2.92894,7.07106 0,2.65203 1.05366,5.1958 2.92894,7.07107 1.87526,1.87527 4.41903,2.92893 7.07106,2.92893 z"
           clip-path="url(#p849d52a19e)"
           style="fill:#ffffff;stroke:#000000;stroke-width:1.5"
           id="path201" />
        <path
           d="m 411.8876,276.04749 c 2.65203,0 5.1958,-1.05367 7.07107,-2.92893 1.87527,-1.87527 2.92893,-4.41904 2.92893,-7.07107 0,-2.65203 -1.05366,-5.1958 -2.92893,-7.07107 -1.87527,-1.87527 -4.41904,-2.92893 -7.07107,-2.92893 -2.65203,0 -5.1958,1.05366 -7.07107,2.92893 -1.87526,1.87527 -2.92893,4.41904 -2.92893,7.07107 0,2.65203 1.05367,5.1958 2.92893,7.07107 1.87527,1.87526 4.41904,2.92893 7.07107,2.92893 z"
           clip-path="url(#p849d52a19e)"
           style="fill:#ffffff;stroke:#000000;stroke-width:1.5"
           id="path203" />
      </g>
    </g>
  </g>
  <defs
     id="defs214">
    <clipPath
       id="p5ed0ad9281">
      <rect
         x="10.8"
         y="10.8"
         width="439.20001"
         height="156.60001"
         id="rect208" />
    </clipPath>
    <clipPath
       id="p849d52a19e">
      <rect
         x="10.8"
         y="178.2"
         width="439.20001"
         height="156.60001"
         id="rect211" />
    </clipPath>
  </defs>
  <path
     style="fill:#000000;stroke:#000000;stroke-width:2;stroke-dasharray:12, 12;stroke-dashoffset:0;stroke-opacity:1"
     d="M 225,14.571428 V 364.57143"
     id="path549" />
  <text
     xml:space="preserve"
     transform="scale(0.75)"
     id="text3097"
     style="font-size:40px;font-family:sans-serif;-inkscape-font-specification:'sans-serif, Normal';white-space:pre;shape-inside:url(#rect3099);display:inline;fill:#141400;fill-opacity:0;stroke:none;stroke-width:2.66667;stroke-dasharray:none;stroke-dashoffset:0;stroke-opacity:1" />
  <text
     xml:space="preserve"
     style="font-size:30px;font-family:sans-serif;-inkscape-font-specification:'sans-serif, Normal';fill:#000000;fill-opacity:1;stroke:none;stroke-width:2;stroke-linecap:butt;stroke-linejoin:round;stroke-dasharray:none;stroke-dashoffset:0;stroke-opacity:1"
     x="442.90527"
     y="137.25098"
     id="text3168"><tspan
       sodipodi:role="line"
       id="tspan7978"
       x="442.90527"
       y="137.25098"><tspan
   style="font-style:italic;font-variant:normal;font-weight:normal;font-stretch:normal;font-size:30px;font-family:sans-serif;-inkscape-font-specification:'sans-serif, Italic';font-variant-ligatures:normal;font-variant-caps:normal;font-variant-numeric:normal;font-variant-east-asian:normal"
   id="tspan7980">ψ</tspan><tspan
   style="font-size:65%;baseline-shift:sub"
   id="tspan10497">12</tspan>=0</tspan></text>
  <text
     xml:space="preserve"
     style="font-size:30px;font-family:sans-serif;-inkscape-font-specification:'sans-serif, Normal';fill:#000000;fill-opacity:1;stroke:none;stroke-width:2;stroke-linecap:butt;stroke-linejoin:round;stroke-dasharray:none;stroke-dashoffset:0;stroke-opacity:1"
     x="442.90527"
     y="303.88477"
     id="text3168-9"><tspan
       sodipodi:role="line"
       id="tspan7978-5"
       x="442.90527"
       y="303.88477"><tspan
   style="font-style:italic;font-variant:normal;font-weight:normal;font-stretch:normal;font-size:30px;font-family:sans-serif;-inkscape-font-specification:'sans-serif, Italic';font-variant-ligatures:normal;font-variant-caps:normal;font-variant-numeric:normal;font-variant-east-asian:normal"
   id="tspan7980-3">ψ</tspan><tspan
   style="font-size:65%;baseline-shift:sub"
   id="tspan10497-2">12</tspan>=1</tspan></text>
  <text
     xml:space="preserve"
     style="font-style:italic;font-variant:normal;font-weight:normal;font-stretch:normal;font-size:30px;font-family:sans-serif;-inkscape-font-specification:'sans-serif, Italic';font-variant-ligatures:normal;font-variant-caps:normal;font-variant-numeric:normal;font-variant-east-asian:normal;fill:#000000;fill-opacity:1;stroke:none;stroke-width:2;stroke-linecap:butt;stroke-linejoin:round;stroke-dasharray:none;stroke-dashoffset:0;stroke-opacity:1"
     x="43.989258"
     y="23.324219"
     id="text10462"><tspan
       sodipodi:role="line"
       id="tspan10460"
       style="font-style:normal;font-variant:normal;font-weight:normal;font-stretch:normal;font-size:18px;font-family:sans-serif;-inkscape-font-specification:'sans-serif, Normal';font-variant-ligatures:normal;font-variant-caps:normal;font-variant-numeric:normal;font-variant-east-asian:normal;stroke-width:2"
       x="43.989258"
       y="23.324219">Community 1</tspan></text>
  <text
     xml:space="preserve"
     style="font-style:italic;font-variant:normal;font-weight:normal;font-stretch:normal;font-size:30px;font-family:sans-serif;-inkscape-font-specification:'sans-serif, Italic';font-variant-ligatures:normal;font-variant-caps:normal;font-variant-numeric:normal;font-variant-east-asian:normal;fill:#000000;fill-opacity:1;stroke:none;stroke-width:2;stroke-linecap:butt;stroke-linejoin:round;stroke-dasharray:none;stroke-dashoffset:0;stroke-opacity:1"
     x="278.98926"
     y="23.359375"
     id="text10462-7"><tspan
       sodipodi:role="line"
       style="font-style:normal;font-variant:normal;font-weight:normal;font-stretch:normal;font-size:18px;font-family:sans-serif;-inkscape-font-specification:'sans-serif, Normal';font-variant-ligatures:normal;font-variant-caps:normal;font-variant-numeric:normal;font-variant-east-asian:normal;stroke-width:2"
       x="278.98926"
       y="23.359375"
       id="tspan10491">Community 2</tspan></text>
</svg>
